<svg width="20" height="20" viewBox="0 0 20 20" fill="none" xmlns="http://www.w3.org/2000/svg">
<path d="M18.3333 8.33366V10.8337C18.3333 14.167 16.6667 15.8337 13.3333 15.8337H12.9167C12.6583 15.8337 12.4083 15.9587 12.25 16.167L11 17.8337C10.45 18.567 9.54999 18.567 8.99999 17.8337L7.74999 16.167C7.61666 15.9837 7.30832 15.8337 7.08332 15.8337H6.66666C3.33332 15.8337 1.66666 15.0003 1.66666 10.8337V6.66699C1.66666 3.33366 3.33332 1.66699 6.66666 1.66699H11.6667" stroke="#192929" stroke-width="1.5" stroke-miterlimit="10" stroke-linecap="round" stroke-linejoin="round"/>
<path d="M16.25 5.83366C17.4006 5.83366 18.3333 4.90092 18.3333 3.75033C18.3333 2.59973 17.4006 1.66699 16.25 1.66699C15.0994 1.66699 14.1667 2.59973 14.1667 3.75033C14.1667 4.90092 15.0994 5.83366 16.25 5.83366Z" stroke="#192929" stroke-width="1.5" stroke-linecap="round" stroke-linejoin="round"/>
<path d="M13.3304 9.16667H13.3379" stroke="#192929" stroke-width="2" stroke-linecap="round" stroke-linejoin="round"/>
<path d="M9.99623 9.16667H10.0037" stroke="#192929" stroke-width="2" stroke-linecap="round" stroke-linejoin="round"/>
<path d="M6.66209 9.16667H6.66957" stroke="#192929" stroke-width="2" stroke-linecap="round" stroke-linejoin="round"/>
</svg>
