<svg width="16" height="14" viewBox="0 0 16 14" fill="none" xmlns="http://www.w3.org/2000/svg">
<path fill-rule="evenodd" clip-rule="evenodd" d="M5.70712 0.292893C6.09765 0.683417 6.09765 1.31658 5.70712 1.70711L3.41422 4H9.00003C12.866 4 16 7.13401 16 11V13C16 13.5523 15.5523 14 15 14C14.4478 14 14 13.5523 14 13V11C14 8.23858 11.7615 6 9.00003 6H3.41422L5.70712 8.29289C6.09765 8.68342 6.09765 9.31658 5.70712 9.70711C5.3166 10.0976 4.68343 10.0976 4.29291 9.70711L0.292894 5.70711C-0.0976314 5.31658 -0.0976314 4.68342 0.292894 4.29289L4.29291 0.292893C4.68343 -0.0976311 5.3166 -0.0976311 5.70712 0.292893Z" fill="#192929"/>
</svg>
