<svg width="70" height="62" viewBox="0 0 70 62" fill="none" xmlns="http://www.w3.org/2000/svg">
<path d="M69 27.5C69 20.4718 66.1554 13.7314 61.0919 8.76167C56.0284 3.79196 49.1608 1 42 1C34.8392 1 27.9716 3.79195 22.9081 8.76167C17.8446 13.7314 15 20.4718 15 27.5H42H69Z" stroke="#192929" stroke-width="1.5"/>
<path d="M0.999996 34C0.999995 41.1608 3.8446 48.0284 8.9081 53.0919C13.9716 58.1554 20.8392 61 28 61C35.1608 61 42.0284 58.1554 47.0919 53.0919C52.1554 48.0284 55 41.1608 55 34L28 34L0.999996 34Z" stroke="#192929" stroke-width="1.5"/>
<circle cx="19.5" cy="33.5" r="3.5" fill="#192929" stroke="white" stroke-width="2"/>
</svg>
