<svg width="16" height="16" viewBox="0 0 16 16" fill="none" xmlns="http://www.w3.org/2000/svg">
<path d="M14.6666 6.66667V8.66667C14.6666 11.3333 13.3333 12.6667 10.6666 12.6667H10.3333C10.1266 12.6667 9.92659 12.7667 9.79992 12.9333L8.79992 14.2667C8.35992 14.8533 7.63992 14.8533 7.19992 14.2667L6.19992 12.9333C6.09325 12.7867 5.84659 12.6667 5.66659 12.6667H5.33325C2.66659 12.6667 1.33325 12 1.33325 8.66667V5.33333C1.33325 2.66667 2.66659 1.33333 5.33325 1.33333H9.33325" stroke="#192929" stroke-width="1.5" stroke-miterlimit="10" stroke-linecap="round" stroke-linejoin="round"/>
<path d="M12.9999 4.66667C13.9204 4.66667 14.6666 3.92048 14.6666 3C14.6666 2.07953 13.9204 1.33333 12.9999 1.33333C12.0794 1.33333 11.3333 2.07953 11.3333 3C11.3333 3.92048 12.0794 4.66667 12.9999 4.66667Z" stroke="#192929" stroke-width="1.5" stroke-linecap="round" stroke-linejoin="round"/>
<path d="M10.6644 7.33333H10.6704" stroke="#192929" stroke-width="2" stroke-linecap="round" stroke-linejoin="round"/>
<path d="M7.99691 7.33333H8.0029" stroke="#192929" stroke-width="2" stroke-linecap="round" stroke-linejoin="round"/>
<path d="M5.32967 7.33333H5.33566" stroke="#192929" stroke-width="2" stroke-linecap="round" stroke-linejoin="round"/>
</svg>
