<svg width="38" height="38" viewBox="0 0 38 38" fill="none" xmlns="http://www.w3.org/2000/svg">
<path d="M26 27.001L30.5 31.501" stroke="#192929" stroke-width="1.4" stroke-linecap="round"/>
<path d="M11.7045 12.406C11.4502 11.4286 12.3504 10.575 13.2817 10.817L13.4682 10.8803L16.832 12.3001C17.6507 12.6455 18.587 12.5654 19.3357 12.0867L22.4114 10.1208C23.3192 9.54048 24.4981 10.2524 24.4068 11.3259L24.0971 14.9639C24.0264 15.794 24.3426 16.6072 24.9482 17.1704L25.0732 17.2792L27.8943 19.5971C28.7265 20.2811 28.4129 21.6229 27.3637 21.8676L23.8081 22.6965C22.9969 22.8859 22.3218 23.4381 21.9734 24.188L21.9077 24.3404L20.5754 27.7396C20.182 28.7424 18.8098 28.8591 18.2528 27.937L16.3653 24.8115C15.9346 24.0985 15.2008 23.6266 14.3799 23.5269L14.2148 23.5121L10.5701 23.2947C9.56196 23.2347 9.02837 22.1159 9.54619 21.3049L9.66422 21.1473L12.0533 18.3861C12.5984 17.7561 12.8206 16.9126 12.6618 16.1011L12.625 15.9392L11.7045 12.406Z" stroke="#192929" stroke-width="1.4"/>
</svg>
