<svg width="34" height="33" viewBox="0 0 34 33" fill="none" xmlns="http://www.w3.org/2000/svg">
<path d="M27.2002 0.700195C27.8939 0.700195 28.6186 1.03662 29.3467 1.7793C30.077 2.52433 30.7679 3.63782 31.3623 5.07129C32.5497 7.93513 33.2998 11.9406 33.2998 16.4004C33.2998 20.86 32.5497 24.8648 31.3623 27.7285C30.7679 29.162 30.077 30.2764 29.3467 31.0215C28.6188 31.7639 27.8938 32.0996 27.2002 32.0996C26.5066 32.0996 25.7816 31.7639 25.0537 31.0215C24.3234 30.2765 23.6334 29.1619 23.0391 27.7285C21.8517 24.8648 21.1006 20.86 21.1006 16.4004C21.1006 11.9406 21.8516 7.93513 23.0391 5.07129C23.6334 3.638 24.3234 2.52427 25.0537 1.7793C25.7817 1.03663 26.5065 0.700206 27.2002 0.700195Z" fill="#F4F4F5" stroke="#192929" stroke-width="1.4"/>
<path d="M20.3994 0.700195C21.0932 0.700195 21.8179 1.03662 22.5459 1.7793C23.2762 2.52433 23.9672 3.63782 24.5615 5.07129C25.7489 7.93513 26.499 11.9406 26.499 16.4004C26.499 20.86 25.7489 24.8648 24.5615 27.7285C23.9672 29.162 23.2762 30.2764 22.5459 31.0215C21.818 31.7639 21.093 32.0996 20.3994 32.0996C19.7058 32.0996 18.9808 31.7639 18.2529 31.0215C17.5226 30.2765 16.8326 29.1619 16.2383 27.7285C15.0509 24.8648 14.2998 20.86 14.2998 16.4004C14.2998 11.9406 15.0509 7.93513 16.2383 5.07129C16.8326 3.638 17.5227 2.52427 18.2529 1.7793C18.9809 1.03663 19.7057 0.700206 20.3994 0.700195Z" fill="#F4F4F5" stroke="#192929" stroke-width="1.4"/>
<path d="M13.5986 0.700195C14.2924 0.700195 15.0171 1.03662 15.7451 1.7793C16.4755 2.52433 17.1664 3.63782 17.7607 5.07129C18.9482 7.93513 19.6982 11.9406 19.6982 16.4004C19.6982 20.86 18.9481 24.8648 17.7607 27.7285C17.1664 29.162 16.4755 30.2764 15.7451 31.0215C15.0172 31.7639 14.2923 32.0996 13.5986 32.0996C12.905 32.0996 12.18 31.7639 11.4521 31.0215C10.7218 30.2765 10.0318 29.1619 9.4375 27.7285C8.25012 24.8648 7.49907 20.86 7.49902 16.4004C7.49902 11.9406 8.25008 7.93513 9.4375 5.07129C10.0318 3.638 10.7219 2.52427 11.4521 1.7793C12.1802 1.03663 12.9049 0.700206 13.5986 0.700195Z" fill="#F4F4F5" stroke="#192929" stroke-width="1.4"/>
<path d="M6.7998 0.700195C7.49356 0.700195 8.21826 1.03662 8.94629 1.7793C9.67662 2.52433 10.3676 3.63782 10.9619 5.07129C12.1493 7.93513 12.8994 11.9406 12.8994 16.4004C12.8994 20.86 12.1493 24.8648 10.9619 27.7285C10.3676 29.162 9.67664 30.2764 8.94629 31.0215C8.21839 31.7639 7.49343 32.0996 6.7998 32.0996C6.10617 32.0996 5.38122 31.7639 4.65332 31.0215C3.92301 30.2765 3.23302 29.1619 2.63867 27.7285C1.45129 24.8648 0.700239 20.86 0.700195 16.4004C0.700195 11.9406 1.45125 7.93513 2.63867 5.07129C3.23299 3.638 3.92305 2.52427 4.65332 1.7793C5.38134 1.03663 6.10606 0.700206 6.7998 0.700195Z" fill="#F4F4F5" stroke="#192929" stroke-width="1.4"/>
</svg>
