<svg width="30" height="30" viewBox="0 0 30 30" fill="none" xmlns="http://www.w3.org/2000/svg">
<path d="M30 17.6367V12.3633H22.9102V15C22.9102 19.3619 19.3619 22.9102 15 22.9102C10.6381 22.9102 7.08984 19.3619 7.08984 15V12.3633H0V17.6367H3.8918C4.17246 18.8297 4.63682 19.9533 5.27971 20.991L2.57092 23.7006L6.29941 27.4291L9.00908 24.7204C10.0468 25.3632 11.1703 25.8275 12.3633 26.1083V30H17.6368V26.1082C18.8298 25.8275 19.9533 25.3632 20.991 24.7203L23.7007 27.4291L27.4292 23.7006L24.7204 20.9909C25.3633 19.9532 25.8276 18.8297 26.1083 17.6367H30V17.6367Z" fill="#192929"/>
<path d="M8.84766 12.3633V15C8.84766 18.3921 11.6079 21.1523 15 21.1523C18.3921 21.1523 21.1523 18.3921 21.1523 15V12.3633H17.6367V15C17.6367 16.4539 16.4539 17.6367 15 17.6367C13.5461 17.6367 12.3633 16.4539 12.3633 15V12.3633H8.84766Z" fill="#192929"/>
<path d="M25.6055 5.27344C24.1515 5.27344 22.9688 4.09066 22.9688 2.63672C22.9688 1.18277 24.1515 0 25.6055 0C27.0594 0 28.2422 1.18277 28.2422 2.63672C28.2422 4.09066 27.0594 5.27344 25.6055 5.27344Z" fill="#192929"/>
<path d="M30 10.5469H21.2109V9.66797C21.2109 7.24494 23.1824 5.27344 25.6055 5.27344C28.0285 5.27344 30 7.24494 30 9.66797V10.5469Z" fill="#192929"/>
<path d="M15 5.27344C13.5461 5.27344 12.3633 4.09066 12.3633 2.63672C12.3633 1.18277 13.5461 0 15 0C16.4539 0 17.6367 1.18277 17.6367 2.63672C17.6367 4.09066 16.4539 5.27344 15 5.27344Z" fill="#192929"/>
<path d="M19.3945 10.5469H10.6055V9.66797C10.6055 7.24494 12.577 5.27344 15 5.27344C17.423 5.27344 19.3945 7.24494 19.3945 9.66797V10.5469Z" fill="#192929"/>
<path d="M4.39453 5.27344C2.94059 5.27344 1.75781 4.09066 1.75781 2.63672C1.75781 1.18277 2.94059 0 4.39453 0C5.84848 0 7.03125 1.18277 7.03125 2.63672C7.03125 4.09066 5.84848 5.27344 4.39453 5.27344Z" fill="#192929"/>
<path d="M8.78906 10.5469H0V9.66797C0 7.24494 1.9715 5.27344 4.39453 5.27344C6.81756 5.27344 8.78906 7.24494 8.78906 9.66797V10.5469Z" fill="#192929"/>
</svg>
