<svg width="16" height="16" viewBox="0 0 16 16" fill="none" xmlns="http://www.w3.org/2000/svg">
<path d="M15.4472 8.89444C15.786 8.72505 16 8.37878 16 8.00001C16 7.62124 15.786 7.27498 15.4472 7.10558L1.44721 0.105583C1.09251 -0.0717671 0.666526 -0.0227608 0.361364 0.230501C0.0562019 0.483763 -0.0704689 0.893423 0.0384759 1.27473L1.46704 6.27472C1.5897 6.70402 1.98209 7 2.42857 7L7 7C7.55228 7 8 7.44771 8 8C8 8.55228 7.55228 9 7 9L2.42857 9C1.98209 9 1.58971 9.29598 1.46705 9.72528L0.0384753 14.7253C-0.0704696 15.1066 0.0562013 15.5163 0.361364 15.7695C0.666525 16.0228 1.09251 16.0718 1.44721 15.8944L15.4472 8.89444Z" fill="white"/>
</svg>
