<svg width="97" height="90" viewBox="0 0 97 90" fill="none" xmlns="http://www.w3.org/2000/svg">
<path d="M49 0.75C51.0579 0.75 53.1063 1.85145 55.0576 4.03613C57.0084 6.22028 58.7999 9.42318 60.3193 13.4453C63.3562 21.4842 65.25 32.6403 65.25 45C65.25 57.3597 63.3562 68.5158 60.3193 76.5547C58.7999 80.5768 57.0084 83.7797 55.0576 85.9639C53.1063 88.1486 51.0579 89.25 49 89.25C46.9421 89.25 44.8937 88.1486 42.9424 85.9639C40.9916 83.7797 39.2001 80.5768 37.6807 76.5547C34.6438 68.5158 32.75 57.3597 32.75 45C32.75 32.6403 34.6438 21.4842 37.6807 13.4453C39.2001 9.42318 40.9916 6.22028 42.9424 4.03613C44.8937 1.85145 46.9421 0.75 49 0.75Z" stroke="#192929" stroke-width="1.5"/>
<path d="M48.5 0.75C55.7338 0.75 62.4044 5.55097 67.3057 13.5713C72.1991 21.5787 75.25 32.6886 75.25 45C75.25 57.3114 72.1991 68.4213 67.3057 76.4287C62.4044 84.449 55.7338 89.25 48.5 89.25C41.2662 89.25 34.5956 84.449 29.6943 76.4287C24.8009 68.4213 21.75 57.3114 21.75 45C21.75 32.6886 24.8009 21.5787 29.6943 13.5713C34.5956 5.55097 41.2662 0.75 48.5 0.75Z" stroke="#192929" stroke-width="1.5"/>
<path d="M48.5 0.75C69.2433 0.75 86.25 20.4474 86.25 45C86.25 69.5526 69.2433 89.25 48.5 89.25C27.7567 89.25 10.75 69.5526 10.75 45C10.75 20.4474 27.7567 0.75 48.5 0.75Z" stroke="#192929" stroke-width="1.5"/>
<path d="M48.5 0.75C74.9255 0.75 96.25 20.6133 96.25 45C96.25 69.3867 74.9255 89.25 48.5 89.25C22.0745 89.25 0.75 69.3867 0.75 45C0.75 20.6133 22.0745 0.75 48.5 0.75Z" stroke="#192929" stroke-width="1.5"/>
</svg>
