<svg width="90" height="90" viewBox="0 0 90 90" fill="none" xmlns="http://www.w3.org/2000/svg">
<path d="M45 0.5C47.0793 0.5 49.1237 1.64807 51.0449 3.86426C52.9649 6.07911 54.7171 9.31313 56.1982 13.3525C59.1591 21.4277 61 32.6168 61 45C61 57.3832 59.1591 68.5723 56.1982 76.6475C54.7171 80.6869 52.9649 83.9209 51.0449 86.1357C49.1237 88.3519 47.0793 89.5 45 89.5C42.9207 89.5 40.8763 88.3519 38.9551 86.1357C37.0351 83.9209 35.2829 80.6869 33.8018 76.6475C30.8409 68.5723 29 57.3832 29 45C29 32.6168 30.8409 21.4277 33.8018 13.3525C35.2829 9.31313 37.0351 6.07911 38.9551 3.86426C40.8763 1.64807 42.9207 0.5 45 0.5Z" stroke="#192929"/>
<path d="M89.5 45C89.5 47.0793 88.3519 49.1237 86.1357 51.0449C83.9209 52.9649 80.6869 54.7171 76.6475 56.1982C68.5723 59.1591 57.3832 61 45 61C32.6168 61 21.4277 59.1591 13.3525 56.1982C9.31313 54.7171 6.07911 52.9649 3.86426 51.0449C1.64807 49.1237 0.499999 47.0793 0.499999 45C0.499999 42.9207 1.64807 40.8763 3.86426 38.9551C6.07911 37.0351 9.31313 35.2829 13.3525 33.8018C21.4277 30.8409 32.6168 29 45 29C57.3832 29 68.5723 30.8409 76.6475 33.8018C80.6869 35.2829 83.9209 37.0351 86.1357 38.9551C88.3519 40.8763 89.5 42.9207 89.5 45Z" stroke="#192929"/>
<path d="M76.4665 13.5338C77.9368 15.0041 78.5706 17.2615 78.3621 20.187C78.1535 23.1108 77.1058 26.6366 75.2968 30.5402C71.6804 38.3439 65.0703 47.5575 56.314 56.3137C47.5577 65.07 38.3442 71.6801 30.5405 75.2965C26.6369 77.1055 23.1111 78.1532 20.1873 78.3618C17.2618 78.5704 15.0043 77.9366 13.534 76.4663C12.0637 74.996 11.4299 72.7385 11.6385 69.813C11.8471 66.8892 12.8948 63.3634 14.7038 59.4598C18.3202 51.6561 24.9303 42.4426 33.6866 33.6863C42.4428 24.93 51.6564 18.3199 59.4601 14.7035C63.3637 12.8945 66.8895 11.8468 69.8132 11.6382C72.7388 11.4297 74.9962 12.0635 76.4665 13.5338Z" stroke="#192929"/>
<path d="M13.5339 13.5338C12.0637 15.0041 11.4298 17.2615 11.6384 20.187C11.847 23.1108 12.8947 26.6366 14.7037 30.5402C18.3201 38.3439 24.9302 47.5575 33.6865 56.3137C42.4428 65.07 51.6563 71.6801 59.46 75.2965C63.3636 77.1055 66.8894 78.1532 69.8132 78.3618C72.7387 78.5704 74.9962 77.9366 76.4665 76.4663C77.9367 74.996 78.5705 72.7385 78.362 69.813C78.1534 66.8892 77.1057 63.3634 75.2967 59.4598C71.6803 51.6561 65.0702 42.4426 56.3139 33.6863C47.5576 24.93 38.3441 18.3199 30.5404 14.7035C26.6368 12.8945 23.111 11.8468 20.1872 11.6382C17.2617 11.4297 15.0042 12.0635 13.5339 13.5338Z" stroke="#192929"/>
</svg>
