<svg width="40" height="34" viewBox="0 0 40 34" fill="none" xmlns="http://www.w3.org/2000/svg">
<g opacity="0.4">
<path d="M0 32V2C0 0.895431 0.89543 0 2 0H14C15.1046 0 16 0.895431 16 2V15.8638C16 16.2777 15.8716 16.6814 15.6324 17.0193L4.21067 33.1555C3.83576 33.6852 3.22717 34 2.57824 34H2C0.89543 34 0 33.1046 0 32Z" fill="#F4D39A"/>
<path d="M24 32V2C24 0.895431 24.8954 0 26 0H38C39.1046 0 40 0.895431 40 2V15.8638C40 16.2777 39.8716 16.6814 39.6324 17.0193L28.2107 33.1555C27.8358 33.6852 27.2272 34 26.5782 34H26C24.8954 34 24 33.1046 24 32Z" fill="#F4D39A"/>
</g>
</svg>
