<svg width="12" height="12" viewBox="0 0 12 12" fill="none" xmlns="http://www.w3.org/2000/svg">
<path d="M6.3999 6.40039C9.49264 6.40039 11.9998 6.40039 11.9998 6.40039C11.9998 9.49322 9.49264 12.0005 6.3999 12.0005C6.3999 12.0005 6.3999 8.80043 6.3999 6.40039Z" fill="#2C2B28"/>
<path d="M11.9998 5.60009C8.90705 5.60009 6.3999 5.60009 6.3999 5.60009C6.3999 2.50724 8.90705 0 11.9998 0C11.9998 0 11.9998 3.20005 11.9998 5.60009Z" fill="#2C2B28"/>
<path d="M5.59989 6.40039C5.59989 9.49322 5.59989 12.0005 5.59989 12.0005C2.50715 12.0005 -3.68805e-08 9.49322 0 6.40039C0 6.40039 3.19993 6.40039 5.59989 6.40039Z" fill="#2C2B28"/>
<path d="M6.68218e-08 5.60009C2.99812e-08 2.50724 0 0 0 0C3.09274 -3.68818e-08 5.59989 2.50724 5.59989 5.60009C5.59989 5.60009 2.39995 5.60009 6.68218e-08 5.60009Z" fill="#2C2B28"/>
</svg>
