<svg width="14" height="10" viewBox="0 0 14 10" fill="none" xmlns="http://www.w3.org/2000/svg">
<path d="M4.66602 5C4.66602 4.01109 4.93973 3.04439 5.45253 2.22214C5.96533 1.3999 6.6942 0.759043 7.54696 0.380605C8.3997 0.00216626 9.33806 -0.0968502 10.2434 0.0960758C11.1486 0.289002 11.9801 0.765205 12.6329 1.46447C13.2855 2.16374 13.73 3.05464 13.91 4.02454C14.0902 4.99446 13.9978 5.99979 13.6445 6.91342C13.2913 7.82704 12.6931 8.60795 11.9257 9.15735C11.1581 9.70675 10.2559 10 9.33289 10V5H4.66602Z" fill="#2C2B28"/>
<path d="M9.33373 5C9.33373 5.9889 9.06003 6.9556 8.54721 7.77785C8.03443 8.6001 7.30556 9.24096 6.45279 9.6194C5.60004 9.99783 4.66169 10.0969 3.75641 9.90391C2.85113 9.711 2.01958 9.23479 1.3669 8.53553C0.714223 7.83626 0.269747 6.94536 0.0896745 5.97544C-0.0903973 5.00554 0.00202204 4.00021 0.355246 3.08658C0.708469 2.17296 1.30664 1.39206 2.07409 0.842653C2.84155 0.293244 3.74385 -1.17926e-08 4.66687 0V5H9.33373Z" fill="#2C2B28"/>
</svg>
