<svg width="70" height="60" viewBox="0 0 70 60" fill="none" xmlns="http://www.w3.org/2000/svg">
<path opacity="0.1" d="M29.4371 4.08327e-06L29.4371 12C23.4106 12.6154 19.3157 14.6923 17.1523 18.2308C14.8344 21.9231 13.6755 27.3077 13.6755 34.3846L4.40396 33L29.2053 33L29.2053 60L-7.62939e-06 60L-5.81369e-06 39.2308C-4.91256e-06 28.9231 2.39514 20.2308 7.18542 13.1538C11.8212 6.07693 19.2384 1.69231 29.4371 4.08327e-06ZM70 7.62939e-06L70 12C63.9735 12.6154 59.8786 14.6923 57.7152 18.2308C55.3974 21.9231 54.2384 27.3077 54.2384 34.3846L44.9669 33L69.7682 33L69.7682 60L40.5629 60L40.5629 39.2308C40.5629 28.9231 42.9581 20.2308 47.7483 13.1539C52.3841 6.07693 59.8013 1.69232 70 7.62939e-06Z" fill="white"/>
</svg>
