<svg width="60" height="52" viewBox="0 0 60 52" fill="none" xmlns="http://www.w3.org/2000/svg">
<path d="M51.71 9.5H44.5V2C44.5 1.60218 44.342 1.22064 44.0607 0.93934C43.7794 0.658035 43.3978 0.5 43 0.5H17C16.6022 0.5 16.2206 0.658035 15.9393 0.93934C15.658 1.22064 15.5 1.60218 15.5 2V9.5H8.29C6.22396 9.5 4.24255 10.3207 2.78164 11.7816C1.32073 13.2425 0.5 15.224 0.5 17.29V43.71C0.5 45.776 1.32073 47.7575 2.78164 49.2184C4.24255 50.6793 6.22396 51.5 8.29 51.5H51.71C53.776 51.5 55.7575 50.6793 57.2184 49.2184C58.6793 47.7575 59.5 45.776 59.5 43.71V17.29C59.5 15.224 58.6793 13.2425 57.2184 11.7816C55.7575 10.3207 53.776 9.5 51.71 9.5ZM18.5 3.5H41.5V9.5H18.5V3.5ZM8.29 12.5H51.71C52.9796 12.5026 54.1964 13.0081 55.0941 13.9059C55.9919 14.8036 56.4974 16.0204 56.5 17.29V17.66C50.25 23.2 40.41 26.5 30 26.5C19.59 26.5 9.75 23.2 3.5 17.66V17.29C3.50264 16.0204 4.00815 14.8036 4.90588 13.9059C5.8036 13.0081 7.02042 12.5026 8.29 12.5ZM51.71 48.5H8.29C7.02042 48.4974 5.8036 47.9919 4.90588 47.0941C4.00815 46.1964 3.50264 44.9796 3.5 43.71V21.53C10.27 26.53 19.92 29.53 30 29.53C40.08 29.53 49.73 26.59 56.5 21.53V43.71C56.4974 44.9796 55.9919 46.1964 55.0941 47.0941C54.1964 47.9919 52.9796 48.4974 51.71 48.5Z" fill="#192929"/>
</svg>
