<svg width="60" height="54" viewBox="0 0 60 54" fill="none" xmlns="http://www.w3.org/2000/svg">
<path d="M34.4943 34.9668C28.2017 38.6634 21.8943 40.9211 16.7868 41.5869C14.2327 41.9199 11.9853 41.8539 10.192 41.3758C8.39943 40.898 7.0697 40.0113 6.33036 38.7083C5.59105 37.4054 5.50123 35.7903 5.99077 33.9718C6.48051 32.1526 7.54808 30.1392 9.1085 28.0551C12.229 23.8874 17.3043 19.4582 23.5968 15.7616C29.8894 12.065 36.1968 9.80733 41.3043 9.1415C43.8584 8.80853 46.1058 8.87451 47.8991 9.35256C49.6917 9.83044 51.0214 10.7171 51.7607 12.0201C52.5001 13.323 52.5899 14.9381 52.1003 16.7566C51.6106 18.5759 50.543 20.5892 48.9826 22.6733C45.8621 26.841 40.7868 31.2703 34.4943 34.9668Z" stroke="#192929" stroke-width="0.6"/>
<path d="M35.3473 36.4678C29.0548 40.1644 22.7473 42.4221 17.6398 43.0879C15.0857 43.4209 12.8383 43.3549 11.045 42.8768C9.25246 42.399 7.92273 41.5123 7.18339 40.2093C6.44408 38.9064 6.35425 37.2913 6.8438 35.4728C7.33354 33.6536 8.4011 31.6402 9.96153 29.5561C13.082 25.3883 18.1573 20.9592 24.4499 17.2626C30.7424 13.566 37.0499 11.3083 42.1574 10.6425C44.7114 10.3095 46.9589 10.3755 48.7522 10.8535C50.5447 11.3314 51.8744 12.2181 52.6138 13.521C53.3531 14.824 53.4429 16.4391 52.9534 18.2576C52.4636 20.0768 51.396 22.0902 49.8356 24.1743C46.7152 28.342 41.6399 32.7712 35.3473 36.4678Z" stroke="#192929" stroke-width="0.6"/>
<path d="M36.2009 37.9698C29.9083 41.6664 23.6008 43.9241 18.4933 44.5899C15.9393 44.9229 13.6918 44.8569 11.8985 44.3788C10.106 43.9009 8.77624 43.0143 8.03693 41.7113C7.29759 40.4083 7.2078 38.7933 7.69734 36.9748C8.18706 35.1555 9.25464 33.1422 10.8151 31.0581C13.9355 26.8903 19.0108 22.4611 25.3034 18.7646C31.5959 15.068 37.9034 12.8103 43.0109 12.1445C45.565 11.8115 47.8124 11.8774 49.6057 12.3555C51.3983 12.8334 52.728 13.7201 53.4673 15.023C54.2066 16.326 54.2964 17.941 53.8069 19.7596C53.3171 21.5788 52.2496 23.5922 50.6892 25.6763C47.5687 29.844 42.4934 34.2732 36.2009 37.9698Z" stroke="#192929" stroke-width="0.6"/>
<path d="M39.3704 26.7125C39.261 33.9288 37.8942 40.4752 35.7782 45.2245C34.7202 47.5994 33.4774 49.5189 32.1163 50.8487C30.7558 52.178 29.2836 52.9122 27.7606 52.9358C26.2376 52.9593 24.7871 52.2701 23.4663 50.9822C22.1448 49.6938 20.9597 47.8118 19.9732 45.4685C18.0003 40.7823 16.8315 34.275 16.9409 27.0587C17.0503 19.8425 18.4171 13.2961 20.5331 8.54682C21.5912 6.17196 22.8339 4.25244 24.195 2.92256C25.5556 1.59334 27.0277 0.85907 28.5507 0.835568C30.0737 0.812066 31.5242 1.50119 32.845 2.78903C34.1665 4.07747 35.3516 5.95955 36.3381 8.30283C38.311 12.9891 39.4798 19.4963 39.3704 26.7125Z" stroke="#192929" stroke-width="0.6"/>
<path d="M41.1136 26.692C41.0041 33.9083 39.6374 40.4547 37.5214 45.204C36.4633 47.5789 35.2206 49.4984 33.8594 50.8282C32.4989 52.1575 31.0268 52.8917 29.5038 52.9152C27.9808 52.9387 26.5303 52.2496 25.2094 50.9618C23.888 49.6733 22.7029 47.7913 21.7164 45.4479C19.7435 40.7618 18.5746 34.2545 18.6841 27.0382C18.7935 19.8219 20.1603 13.2756 22.2763 8.5263C23.3343 6.15144 24.5771 4.23192 25.9382 2.90204C27.2987 1.57282 28.7709 0.838548 30.2939 0.815046C31.8168 0.791571 33.2674 1.48067 34.5882 2.76851C35.9097 4.05695 37.0947 5.93906 38.0813 8.2823C40.0542 12.9686 41.223 19.4757 41.1136 26.692Z" stroke="#192929" stroke-width="0.6"/>
<path d="M42.8563 26.671C42.7468 33.8873 41.3801 40.4337 39.2641 45.183C38.206 47.5579 36.9633 49.4774 35.6021 50.8072C34.2417 52.1366 32.7696 52.8709 31.2465 52.8943C29.7235 52.9178 28.2729 52.2286 26.9521 50.9407C25.6307 49.6523 24.4456 47.7703 23.459 45.427C21.4862 40.7407 20.3173 34.2335 20.4268 27.0172C20.5362 19.801 21.903 13.2546 24.019 8.50529C25.077 6.13043 26.3198 4.21094 27.6809 2.88103C29.0414 1.55181 30.5135 0.817564 32.0365 0.794062C33.5595 0.770559 35.0101 1.45973 36.3309 2.74757C37.6523 4.03601 38.8374 5.91805 39.824 8.26137C41.7968 12.9476 42.9657 19.4548 42.8563 26.671Z" stroke="#192929" stroke-width="0.6"/>
<path d="M34.7638 18.5891C28.5688 15.0775 22.3152 13.009 17.2161 12.4995C14.6663 12.2447 12.4116 12.3803 10.5995 12.9151C8.7882 13.4497 7.42734 14.3801 6.64585 15.7108C5.86435 17.0415 5.72547 18.6646 6.16088 20.4727C6.59647 22.2817 7.60537 24.2673 9.10599 26.3085C12.107 30.3906 17.0596 34.6744 23.2546 38.186C29.4495 41.6977 35.7032 43.7662 40.8023 44.2758C43.3521 44.5306 45.6067 44.3949 47.4189 43.8601C49.2302 43.3256 50.5911 42.3952 51.3725 41.0644C52.154 39.7338 52.2929 38.1106 51.8575 36.3025C51.4219 34.4935 50.413 32.5079 48.9123 30.4667C45.9113 26.3847 40.9588 22.1008 34.7638 18.5891Z" stroke="#192929" stroke-width="0.6"/>
<path d="M35.6535 17.0667C29.4585 13.555 23.2049 11.4866 18.1057 10.977C15.5559 10.7222 13.3013 10.8578 11.4891 11.3926C9.67782 11.9272 8.31701 12.8577 7.53552 14.1883C6.75402 15.519 6.61514 17.1421 7.0505 18.9502C7.48615 20.7592 8.49504 22.7448 9.99566 24.786C12.9967 28.8681 17.9492 33.1519 24.1442 36.6636C30.3392 40.1753 36.5928 42.2437 41.692 42.7533C44.2417 43.0081 46.4964 42.8725 48.3085 42.3376C50.1198 41.803 51.4807 40.8726 52.2622 39.542C53.0436 38.2113 53.1825 36.5882 52.7471 34.78C52.3115 32.971 51.3026 30.9855 49.802 28.9442C46.801 24.8622 41.8485 20.5784 35.6535 17.0667Z" stroke="#192929" stroke-width="0.6"/>
<path d="M36.5426 15.5437C30.3476 12.032 24.094 9.96362 18.9949 9.45405C16.4451 9.19924 14.1904 9.33489 12.3783 9.86968C10.567 10.4043 9.20615 11.3347 8.42465 12.6654C7.64316 13.9961 7.50428 15.6191 7.93969 17.4273C8.37528 19.2363 9.38418 21.2219 10.8848 23.2631C13.8858 27.3452 18.8384 31.629 25.0334 35.1406C31.2283 38.6523 37.4819 40.7208 42.5811 41.2303C45.1309 41.4851 47.3856 41.3495 49.1977 40.8147C51.009 40.2801 52.3698 39.3496 53.1513 38.019C53.9328 36.6883 54.0717 35.0652 53.6363 33.2571C53.2007 31.4481 52.1918 29.4625 50.6912 27.4213C47.6901 23.3393 42.7376 19.0554 36.5426 15.5437Z" stroke="#192929" stroke-width="0.6"/>
</svg>
