<svg width="51" height="58" viewBox="0 0 51 58" fill="none" xmlns="http://www.w3.org/2000/svg">
<path d="M20.666 31.3735V26.191L25.643 23.4219L30.6201 26.191V31.3735L25.643 34.1426L20.666 31.3735Z" stroke="#050505" stroke-width="0.6"/>
<path d="M15.3271 23.2302L25.5753 17.3032L35.9621 23.2307V34.7595L25.5753 40.5811L15.3271 34.76V23.2302Z" stroke="#050505" stroke-width="0.6"/>
<path d="M10.5571 20.4637L25.6402 12.0576L40.7234 20.4637V37.0547L25.6402 45.3912L10.5571 37.0547V20.4637Z" stroke="#050505" stroke-width="0.6"/>
<path d="M15.4081 23.2477L10.7349 20.5903" stroke="#050505" stroke-width="0.6"/>
<path d="M35.8589 23.2605L40.6628 20.5288" stroke="#050505" stroke-width="0.6"/>
<path d="M25.6431 40.4248V45.1962" stroke="#050505" stroke-width="0.6"/>
<path d="M25.6431 51.0176V57.3255" stroke="#050505" stroke-width="0.6"/>
<path d="M45.2266 17.9338L50.3449 15.0234" stroke="#050505" stroke-width="0.6"/>
<path d="M6.05875 17.9339L0.94043 15.0234" stroke="#050505" stroke-width="0.6"/>
<path d="M5.93555 17.8796L25.6437 6.8125L45.352 17.8796V40.0059L25.6437 51.0731L5.93555 40.0059V17.8796Z" stroke="#050505" stroke-width="0.6"/>
<path d="M0.922366 14.946L25.6411 0.693359L50.3599 14.946V43.0659L25.6411 57.1916L0.922363 43.0659L0.922366 14.946Z" stroke="#050505" stroke-width="0.6"/>
</svg>
