<svg width="56" height="53" viewBox="0 0 56 53" fill="none" xmlns="http://www.w3.org/2000/svg">
<g clip-path="url(#clip0_750_184)">
<path d="M55.628 15.0901C55.628 18.8599 52.5633 22.306 47.5317 24.8171C42.5077 27.3245 35.5585 28.8789 27.8758 28.8789C20.1931 28.8789 13.2438 27.3245 8.21976 24.8171C3.18836 22.306 0.123535 18.8599 0.123535 15.0901C0.123535 11.3203 3.18836 7.8742 8.21976 5.36309C13.2438 2.8557 20.1931 1.30127 27.8758 1.30127C35.5585 1.30127 42.5077 2.8557 47.5317 5.36309C52.5633 7.8742 55.628 11.3203 55.628 15.0901Z" stroke="#192929" stroke-width="0.5"/>
<path d="M55.628 16.7571C55.628 20.5268 52.5633 23.973 47.5317 26.4841C42.5077 28.9915 35.5585 30.5459 27.8758 30.5459C20.1931 30.5459 13.2438 28.9915 8.21976 26.4841C3.18836 23.973 0.123535 20.5268 0.123535 16.7571C0.123535 12.9873 3.18836 9.54119 8.21976 7.03007C13.2438 4.52269 20.1931 2.96826 27.8758 2.96826C35.5585 2.96826 42.5077 4.52269 47.5317 7.03007C52.5633 9.54119 55.628 12.9873 55.628 16.7571Z" stroke="#192929" stroke-width="0.5"/>
<path d="M55.628 18.4236C55.628 22.1934 52.5633 25.6395 47.5317 28.1506C42.5077 30.658 35.5585 32.2124 27.8758 32.2124C20.1931 32.2124 13.2438 30.658 8.21976 28.1506C3.18836 25.6395 0.123535 22.1934 0.123535 18.4236C0.123535 14.6538 3.18836 11.2077 8.21976 8.69657C13.2438 6.18919 20.1931 4.63477 27.8758 4.63477C35.5585 4.63477 42.5077 6.18919 47.5317 8.69657C52.5633 11.2077 55.628 14.6538 55.628 18.4236Z" stroke="#192929" stroke-width="0.5"/>
<path d="M55.628 20.0901C55.628 23.8599 52.5633 27.306 47.5317 29.8171C42.5077 32.3245 35.5585 33.8789 27.8758 33.8789C20.1931 33.8789 13.2438 32.3245 8.21976 29.8171C3.18836 27.306 0.123535 23.8599 0.123535 20.0901C0.123535 16.3203 3.18836 12.8742 8.21976 10.3631C13.2438 7.85571 20.1931 6.30127 27.8758 6.30127C35.5585 6.30127 42.5077 7.85571 47.5317 10.3631C52.5633 12.8742 55.628 16.3203 55.628 20.0901Z" stroke="#192929" stroke-width="0.5"/>
<path d="M55.628 21.7566C55.628 25.5264 52.5633 28.9725 47.5317 31.4836C42.5077 33.991 35.5585 35.5454 27.8758 35.5454C20.1931 35.5454 13.2438 33.991 8.21976 31.4836C3.18836 28.9725 0.123535 25.5264 0.123535 21.7566C0.123535 17.9869 3.18836 14.5407 8.21976 12.0296C13.2438 9.52221 20.1931 7.96777 27.8758 7.96777C35.5585 7.96777 42.5077 9.52221 47.5317 12.0296C52.5633 14.5407 55.628 17.9869 55.628 21.7566Z" stroke="#192929" stroke-width="0.5"/>
<path d="M55.628 23.4231C55.628 27.1929 52.5633 30.639 47.5317 33.1501C42.5077 35.6575 35.5585 37.2119 27.8758 37.2119C20.1931 37.2119 13.2438 35.6575 8.21976 33.1501C3.18836 30.639 0.123535 27.1929 0.123535 23.4231C0.123535 19.6534 3.18836 16.2072 8.21976 13.6961C13.2438 11.1887 20.1931 9.63428 27.8758 9.63428C35.5585 9.63428 42.5077 11.1887 47.5317 13.6961C52.5633 16.2072 55.628 19.6534 55.628 23.4231Z" stroke="#192929" stroke-width="0.5"/>
<path d="M55.628 25.0901C55.628 28.8599 52.5633 32.306 47.5317 34.8171C42.5077 37.3245 35.5585 38.8789 27.8758 38.8789C20.1931 38.8789 13.2438 37.3245 8.21976 34.8171C3.18836 32.306 0.123535 28.8599 0.123535 25.0901C0.123535 21.3203 3.18836 17.8742 8.21976 15.3631C13.2438 12.8557 20.1931 11.3013 27.8758 11.3013C35.5585 11.3013 42.5077 12.8557 47.5317 15.3631C52.5633 17.8742 55.628 21.3203 55.628 25.0901Z" stroke="#192929" stroke-width="0.5"/>
<path d="M55.628 26.7566C55.628 30.5264 52.5633 33.9725 47.5317 36.4836C42.5077 38.991 35.5585 40.5454 27.8758 40.5454C20.1931 40.5454 13.2438 38.991 8.21976 36.4836C3.18836 33.9725 0.123535 30.5264 0.123535 26.7566C0.123535 22.9869 3.18836 19.5407 8.21976 17.0296C13.2438 14.5222 20.1931 12.9678 27.8758 12.9678C35.5585 12.9678 42.5077 14.5222 47.5317 17.0296C52.5633 19.5407 55.628 22.9869 55.628 26.7566Z" stroke="#192929" stroke-width="0.5"/>
<path d="M55.628 28.4231C55.628 32.1929 52.5633 35.639 47.5317 38.1501C42.5077 40.6575 35.5585 42.2119 27.8758 42.2119C20.1931 42.2119 13.2438 40.6575 8.21976 38.1501C3.18836 35.639 0.123535 32.1929 0.123535 28.4231C0.123535 24.6534 3.18836 21.2072 8.21976 18.6961C13.2438 16.1887 20.1931 14.6343 27.8758 14.6343C35.5585 14.6343 42.5077 16.1887 47.5317 18.6961C52.5633 21.2072 55.628 24.6534 55.628 28.4231Z" stroke="#192929" stroke-width="0.5"/>
<path d="M55.628 30.0896C55.628 33.8594 52.5633 37.3055 47.5317 39.8166C42.5077 42.324 35.5585 43.8784 27.8758 43.8784C20.1931 43.8784 13.2438 42.324 8.21976 39.8166C3.18836 37.3055 0.123535 33.8594 0.123535 30.0896C0.123535 26.3199 3.18836 22.8737 8.21976 20.3626C13.2438 17.8552 20.1931 16.3008 27.8758 16.3008C35.5585 16.3008 42.5077 17.8552 47.5317 20.3626C52.5633 22.8737 55.628 26.3199 55.628 30.0896Z" stroke="#192929" stroke-width="0.5"/>
<path d="M55.628 31.7561C55.628 35.5259 52.5633 38.972 47.5317 41.4831C42.5077 43.9905 35.5585 45.545 27.8758 45.545C20.1931 45.545 13.2438 43.9905 8.21976 41.4831C3.18836 38.972 0.123535 35.5259 0.123535 31.7561C0.123535 27.9864 3.18836 24.5402 8.21976 22.0291C13.2438 19.5217 20.1931 17.9673 27.8758 17.9673C35.5585 17.9673 42.5077 19.5217 47.5317 22.0291C52.5633 24.5402 55.628 27.9864 55.628 31.7561Z" stroke="#192929" stroke-width="0.5"/>
<path d="M55.628 33.4231C55.628 37.1929 52.5633 40.639 47.5317 43.1501C42.5077 45.6575 35.5585 47.2119 27.8758 47.2119C20.1931 47.2119 13.2438 45.6575 8.21976 43.1501C3.18836 40.639 0.123535 37.1929 0.123535 33.4231C0.123535 29.6534 3.18836 26.2072 8.21976 23.6961C13.2438 21.1887 20.1931 19.6343 27.8758 19.6343C35.5585 19.6343 42.5077 21.1887 47.5317 23.6961C52.5633 26.2072 55.628 29.6534 55.628 33.4231Z" stroke="#192929" stroke-width="0.5"/>
<path d="M55.628 35.0896C55.628 38.8594 52.5633 42.3055 47.5317 44.8166C42.5077 47.324 35.5585 48.8784 27.8758 48.8784C20.1931 48.8784 13.2438 47.324 8.21976 44.8166C3.18836 42.3055 0.123535 38.8594 0.123535 35.0896C0.123535 31.3199 3.18836 27.8737 8.21976 25.3626C13.2438 22.8552 20.1931 21.3008 27.8758 21.3008C35.5585 21.3008 42.5077 22.8552 47.5317 25.3626C52.5633 27.8737 55.628 31.3199 55.628 35.0896Z" stroke="#192929" stroke-width="0.5"/>
<path d="M55.628 36.7561C55.628 40.5259 52.5633 43.972 47.5317 46.4831C42.5077 48.9905 35.5585 50.545 27.8758 50.545C20.1931 50.545 13.2438 48.9905 8.21976 46.4831C3.18836 43.972 0.123535 40.5259 0.123535 36.7561C0.123535 32.9864 3.18836 29.5402 8.21976 27.0291C13.2438 24.5217 20.1931 22.9673 27.8758 22.9673C35.5585 22.9673 42.5077 24.5217 47.5317 27.0291C52.5633 29.5402 55.628 32.9864 55.628 36.7561Z" stroke="#192929" stroke-width="0.5"/>
<path d="M55.628 38.4226C55.628 42.1924 52.5633 45.6385 47.5317 48.1496C42.5077 50.657 35.5585 52.2115 27.8758 52.2115C20.1931 52.2115 13.2438 50.657 8.21976 48.1496C3.18836 45.6385 0.123535 42.1924 0.123535 38.4226C0.123535 34.6529 3.18836 31.2067 8.21976 28.6956C13.2438 26.1882 20.1931 24.6338 27.8758 24.6338C35.5585 24.6338 42.5077 26.1882 47.5317 28.6956C52.5633 31.2067 55.628 34.6529 55.628 38.4226Z" stroke="#192929" stroke-width="0.5"/>
</g>
<defs>
<clipPath id="clip0_750_184">
<rect width="56" height="53" fill="white"/>
</clipPath>
</defs>
</svg>
