<svg width="220" height="31" viewBox="0 0 220 31" fill="none" xmlns="http://www.w3.org/2000/svg">
<path d="M209.112 30.9586C205.739 30.9586 203.081 30.0309 201.139 28.1755C199.196 26.3066 198.225 23.6657 198.225 20.2529C198.225 16.6776 199.15 13.9893 201.001 12.1881C202.852 10.3869 205.503 9.48633 208.955 9.48633C212.446 9.48633 215.157 10.414 217.086 12.2694C219.029 14.1112 220 16.7859 220 20.2935V21.6749H202.458C202.458 23.3813 203.075 24.7153 204.308 25.6768C205.555 26.6384 207.183 27.1192 209.191 27.1192C210.963 27.1192 212.387 26.8144 213.463 26.205C214.553 25.5956 215.242 24.7221 215.531 23.5845H219.685C218.779 28.5005 215.255 30.9586 209.112 30.9586ZM202.418 18.6278L215.649 18.6684C215.649 17.0297 214.993 15.7364 213.68 14.7884C212.381 13.8268 210.819 13.346 208.994 13.346C207.091 13.346 205.516 13.7862 204.269 14.6665C203.035 15.5332 202.418 16.8537 202.418 18.6278Z" fill="white"/>
<path d="M174.383 23.7476H178.537C178.642 25.8602 180.769 26.9166 184.916 26.9166C189.3 26.9166 191.492 26.0837 191.492 24.4179C191.492 23.9304 191.013 23.4767 190.055 23.0569C189.11 22.6235 187.961 22.3256 186.61 22.163L180.92 21.0864C180.014 20.9239 179.187 20.7072 178.439 20.4363C177.691 20.1519 176.995 19.7998 176.352 19.38C175.709 18.9466 175.204 18.4117 174.836 17.7751C174.482 17.1386 174.304 16.4276 174.304 15.6421C174.304 14.3827 174.797 13.2924 175.781 12.3715C176.779 11.4371 178.065 10.7532 179.64 10.3198C181.215 9.87287 182.974 9.64941 184.916 9.64941C187.935 9.64941 190.377 10.2182 192.24 11.3558C194.104 12.4934 195.036 14.1321 195.036 16.2719H190.961C190.961 15.2155 190.403 14.4233 189.287 13.8951C188.171 13.3669 186.715 13.1028 184.916 13.1028C184.221 13.1028 183.525 13.1435 182.829 13.2247C182.147 13.306 181.471 13.4346 180.802 13.6107C180.145 13.7868 179.607 14.0441 179.187 14.3827C178.78 14.7212 178.577 15.114 178.577 15.5609C178.577 16.7391 180.073 17.5178 183.066 17.897L189.878 19.1768C191.545 19.4748 192.903 20.0571 193.953 20.9239C195.016 21.7906 195.548 22.9011 195.548 24.2554C195.548 25.2034 195.371 26.0363 195.016 26.7541C194.662 27.4718 194.176 28.061 193.559 28.5214C192.943 28.9819 192.175 29.3611 191.256 29.659C190.35 29.957 189.379 30.1669 188.342 30.2888C187.318 30.3971 186.176 30.4513 184.916 30.4513C183.394 30.4513 182.009 30.3226 180.762 30.0653C179.515 29.808 178.406 29.4152 177.435 28.8871C176.477 28.3589 175.729 27.6614 175.19 26.7947C174.652 25.9144 174.383 24.8987 174.383 23.7476Z" fill="white"/>
<path d="M168.753 5.64738C167.979 5.64738 167.329 5.3833 166.804 4.85512C166.279 4.31341 166.017 3.63626 166.017 2.82369C166.017 2.01112 166.279 1.34075 166.804 0.812573C167.329 0.270858 167.979 0 168.753 0C169.515 0 170.158 0.270858 170.683 0.812573C171.208 1.35429 171.47 2.02466 171.47 2.82369C171.47 3.62272 171.215 4.29309 170.703 4.83481C170.191 5.37652 169.541 5.64738 168.753 5.64738ZM166.548 30.4512V9.68993H171.057V30.4512H166.548Z" fill="white"/>
<path d="M156.252 30.4513H146.861L140.049 9.64941H144.814L151.586 30.4107H151.626L158.477 9.64941H163.202L156.252 30.4513Z" fill="white"/>
<path d="M123.728 31.0004C122.717 31.0004 121.74 30.8582 120.795 30.5738C119.85 30.3029 118.99 29.9034 118.215 29.3752C117.441 28.847 116.818 28.1631 116.345 27.3235C115.886 26.4703 115.656 25.5155 115.656 24.4591C115.656 23.4299 115.905 22.5225 116.404 21.737C116.916 20.9515 117.585 20.3353 118.412 19.8884C119.252 19.4415 120.132 19.1029 121.051 18.8727C121.969 18.6425 122.927 18.507 123.925 18.4664L133.887 18.0195V17.3085C133.887 14.6135 131.603 13.266 127.036 13.266C122.547 13.266 120.302 14.5593 120.302 17.146H116.148C116.148 16.0219 116.339 15.0198 116.719 14.1395C117.113 13.2592 117.631 12.5414 118.275 11.9862C118.931 11.4309 119.725 10.9704 120.657 10.6048C121.589 10.2391 122.56 9.9818 123.571 9.83283C124.581 9.68386 125.684 9.60938 126.878 9.60938C128.703 9.60938 130.297 9.77189 131.662 10.0969C133.027 10.4219 134.209 10.9366 135.206 11.6408C136.204 12.3315 136.959 13.266 137.47 14.4442C137.982 15.6089 138.238 17.0038 138.238 18.6289V30.4112H133.966V22.9965C133.966 24.2966 133.703 25.4478 133.178 26.4499C132.653 27.4521 132.01 28.2308 131.249 28.7861C130.501 29.3414 129.628 29.795 128.63 30.1472C127.646 30.4993 126.76 30.7295 125.973 30.8378C125.198 30.9462 124.45 31.0004 123.728 31.0004ZM125.087 27.5469C125.769 27.5334 126.478 27.486 127.213 27.4047C127.948 27.3099 128.729 27.1474 129.556 26.9172C130.383 26.6869 131.111 26.4025 131.741 26.064C132.384 25.7254 132.916 25.2785 133.336 24.7232C133.756 24.1544 133.966 23.5247 133.966 22.834V21.2495L125.658 21.6355C124.791 21.6625 123.971 21.7573 123.197 21.9199C122.422 22.0688 121.72 22.3532 121.09 22.7731C120.46 23.1793 120.145 23.6872 120.145 24.2966C120.145 25.055 120.407 25.6915 120.932 26.2062C121.457 26.7073 122.074 27.0594 122.783 27.2625C123.492 27.4521 124.26 27.5469 125.087 27.5469Z" fill="white"/>
<path d="M114.279 9.64941V14.0576H110.006C109.35 14.0576 108.766 14.1253 108.254 14.2608C107.742 14.3827 107.309 14.5452 106.955 14.7483C106.6 14.9515 106.292 15.2223 106.029 15.5609C105.78 15.8995 105.583 16.2448 105.439 16.5969C105.307 16.9355 105.196 17.3485 105.104 17.8361C105.025 18.3236 104.973 18.7773 104.946 19.1971C104.933 19.6034 104.927 20.0842 104.927 20.6395V30.4513H100.398V9.69004H104.887V17.7955C104.887 15.4119 105.511 13.4617 106.758 11.9449C108.018 10.4146 109.54 9.64941 111.325 9.64941H114.279Z" fill="white"/>
<path d="M90.0435 6.35826C90.0435 7.7261 90.4832 8.68087 91.3626 9.22258C92.2421 9.75076 93.6793 10.0148 95.6743 10.0148H97.5644V13.9761H90.0829V22.7519C90.0829 25 90.9558 26.1241 92.7014 26.1241H97.5644V30.451H91.3626C89.5251 30.451 88.1075 29.8484 87.11 28.6431C86.1256 27.4378 85.6334 25.7788 85.6334 23.6661V13.9761H81.3611V10.0148H93.9812C92.9705 10.0148 92.2092 10.0081 91.6973 9.99453C91.1855 9.98098 90.5686 9.94036 89.8467 9.87264C89.1248 9.79138 88.5932 9.67627 88.2519 9.5273C87.9238 9.37833 87.5497 9.16841 87.1297 8.89755C86.7097 8.61315 86.4078 8.26104 86.2241 7.84121C86.0534 7.40784 85.9025 6.88644 85.7712 6.27701C85.6531 5.65403 85.594 4.92272 85.594 4.08306V1.32031H90.0435V6.35826Z" fill="white"/>
<path d="M53.9559 9.93358C53.9559 8.55221 54.2053 7.34012 54.7041 6.29732C55.216 5.24098 55.8657 4.40809 56.6532 3.79866C57.4539 3.17569 58.4186 2.6746 59.5474 2.2954C60.6893 1.90266 61.8049 1.64534 62.8943 1.52346C63.9837 1.38803 65.1585 1.32031 66.4185 1.32031C67.3767 1.32031 68.2495 1.3474 69.037 1.40157C69.8246 1.4422 70.658 1.54377 71.5374 1.70628C72.43 1.85526 73.2175 2.0584 73.9 2.31571C74.5825 2.57303 75.2454 2.92514 75.8885 3.37206C76.5448 3.80543 77.0829 4.32006 77.5029 4.91595C77.9229 5.49829 78.2576 6.22284 78.507 7.08958C78.7695 7.94278 78.9008 8.90433 78.9008 9.97421H74.5891C74.5891 9.36478 74.4972 8.82307 74.3134 8.34907C74.1428 7.87507 73.9197 7.48232 73.6441 7.17084C73.3684 6.84581 73.0009 6.57495 72.5415 6.35826C72.0821 6.12804 71.6424 5.95198 71.2224 5.83009C70.8024 5.70821 70.2774 5.61341 69.6474 5.54569C69.0305 5.47798 68.4923 5.43735 68.0329 5.42381C67.5735 5.41026 67.0157 5.40349 66.3594 5.40349C65.7426 5.40349 65.2175 5.41026 64.7844 5.42381C64.3644 5.43735 63.8459 5.47798 63.229 5.54569C62.6253 5.59986 62.1134 5.68789 61.6934 5.80978C61.2865 5.91812 60.8468 6.08064 60.3743 6.29732C59.9149 6.51401 59.5474 6.77132 59.2717 7.06927C58.9961 7.36721 58.7664 7.74641 58.5826 8.20687C58.3989 8.66733 58.307 9.18873 58.307 9.77107C58.307 10.868 58.6548 11.7483 59.3505 12.4119C60.0592 13.062 61.1093 13.448 62.5006 13.5698L72.0099 14.4434C74.3331 14.6465 76.1379 15.3643 77.4242 16.5967C78.7105 17.8291 79.3536 19.5355 79.3536 21.7159C79.3536 22.8129 79.2092 23.8015 78.9205 24.6818C78.6317 25.5485 78.2511 26.2866 77.7786 26.896C77.3192 27.4919 76.7351 28.0133 76.0263 28.4602C75.3175 28.8936 74.5956 29.239 73.8606 29.4963C73.1256 29.74 72.279 29.9364 71.3209 30.0854C70.3758 30.2344 69.4964 30.3359 68.6826 30.3901C67.882 30.4307 66.9895 30.451 66.0051 30.451C65.0863 30.451 64.2266 30.424 63.4259 30.3698C62.6384 30.3021 61.8115 30.187 60.9452 30.0244C60.0789 29.8619 59.298 29.652 58.6023 29.3947C57.9067 29.1238 57.2373 28.765 56.5941 28.318C55.951 27.8711 55.4063 27.3565 54.96 26.7742C54.5269 26.1783 54.1791 25.4605 53.9166 24.6208C53.6672 23.7676 53.5425 22.8264 53.5425 21.7971H57.8542C57.8542 22.3795 57.9395 22.9009 58.1101 23.3614C58.2939 23.8218 58.5301 24.2146 58.8189 24.5396C59.1077 24.8511 59.4686 25.1219 59.9017 25.3522C60.348 25.5824 60.7943 25.7652 61.2405 25.9006C61.6868 26.0225 62.2053 26.1241 62.7959 26.2054C63.3865 26.2731 63.9247 26.3205 64.4103 26.3476C64.896 26.3611 65.4407 26.3679 66.0444 26.3679C66.7401 26.3679 67.3176 26.3611 67.777 26.3476C68.2495 26.334 68.827 26.3002 69.5095 26.246C70.2052 26.1918 70.7827 26.1106 71.2421 26.0022C71.7015 25.8939 72.1937 25.7314 72.7187 25.5147C73.2569 25.298 73.6769 25.0474 73.9788 24.763C74.2938 24.4651 74.5563 24.0927 74.7663 23.6458C74.9763 23.1853 75.0813 22.6639 75.0813 22.0815C75.0813 20.9304 74.7466 20.1178 74.0772 19.6438C73.4078 19.1563 72.384 18.8313 71.0058 18.6687L61.4571 17.7546C59.0945 17.4973 57.2504 16.6983 55.9247 15.3575C54.6122 14.0032 53.9559 12.1952 53.9559 9.93358Z" fill="white"/>
<path d="M10.7831 1.79199H21.4143L10.6312 21.1709H0L10.7831 1.79199Z" fill="white"/>
<path d="M31.286 11.5596H41.9172L31.1341 30.9384H20.5029L31.286 11.5596Z" fill="white"/>
<path d="M10.7829 21.1709H21.4141L16.2503 30.9391H5.61914L10.7829 21.1709Z" fill="white"/>
<path d="M25.6667 1.79199H36.2979L31.1341 11.5602H20.5029L25.6667 1.79199Z" fill="white"/>
</svg>
