<svg width="192" height="27" viewBox="0 0 192 27" fill="none" xmlns="http://www.w3.org/2000/svg">
<path d="M182.498 26.9646C179.554 26.9646 177.235 26.1566 175.539 24.5406C173.844 22.9128 172.996 20.6127 172.996 17.6402C172.996 14.5262 173.804 12.1848 175.419 10.616C177.034 9.04718 179.348 8.26278 182.361 8.26278C185.408 8.26278 187.773 9.07077 189.457 10.6868C191.152 12.291 192 14.6206 192 17.6756V18.8788H176.691C176.691 20.365 177.229 21.5269 178.306 22.3643C179.394 23.2018 180.814 23.6206 182.567 23.6206C184.113 23.6206 185.356 23.3552 186.295 22.8244C187.246 22.2936 187.848 21.5328 188.1 20.5419H191.725C190.935 24.8237 187.859 26.9646 182.498 26.9646ZM176.656 16.2248L188.203 16.2602C188.203 14.8329 187.63 13.7064 186.484 12.8807C185.35 12.0432 183.987 11.6245 182.395 11.6245C180.734 11.6245 179.36 12.0079 178.271 12.7746C177.195 13.5295 176.656 14.6796 176.656 16.2248Z" fill="#192929"/>
<path d="M152.189 20.6835H155.815C155.906 22.5236 157.762 23.4436 161.382 23.4436C165.208 23.4436 167.121 22.7182 167.121 21.2674C167.121 20.8427 166.702 20.4476 165.866 20.0819C165.042 19.7045 164.039 19.445 162.859 19.3034L157.894 18.3657C157.103 18.2241 156.382 18.0354 155.729 17.7995C155.076 17.5518 154.469 17.2451 153.907 16.8794C153.346 16.502 152.905 16.036 152.584 15.4817C152.275 14.9273 152.12 14.308 152.12 13.6239C152.12 12.5269 152.55 11.5773 153.409 10.7752C154.28 9.96134 155.402 9.36566 156.777 8.9882C158.151 8.59895 159.686 8.40432 161.382 8.40432C164.016 8.40432 166.147 8.89974 167.774 9.89056C169.4 10.8814 170.213 12.3086 170.213 14.1723H166.657C166.657 13.2523 166.17 12.5623 165.196 12.1022C164.223 11.6422 162.951 11.4122 161.382 11.4122C160.775 11.4122 160.167 11.4476 159.56 11.5183C158.965 11.5891 158.375 11.7012 157.791 11.8545C157.218 12.0079 156.748 12.232 156.382 12.5269C156.027 12.8218 155.849 13.1638 155.849 13.5531C155.849 14.5793 157.155 15.2575 159.767 15.5878L165.712 16.7025C167.166 16.962 168.352 17.4692 169.268 18.2241C170.196 18.979 170.66 19.9463 170.66 21.1258C170.66 21.9515 170.506 22.6769 170.196 23.3021C169.887 23.9273 169.463 24.4404 168.925 24.8414C168.386 25.2425 167.716 25.5727 166.914 25.8322C166.124 26.0917 165.276 26.2746 164.371 26.3807C163.478 26.4751 162.481 26.5223 161.382 26.5223C160.053 26.5223 158.844 26.4102 157.756 26.1861C156.668 25.962 155.7 25.6199 154.852 25.1599C154.016 24.6999 153.363 24.0924 152.894 23.3375C152.424 22.5708 152.189 21.6861 152.189 20.6835Z" fill="#192929"/>
<path d="M147.276 4.91874C146.6 4.91874 146.033 4.68873 145.575 4.2287C145.116 3.75688 144.887 3.1671 144.887 2.45937C144.887 1.75164 145.116 1.16776 145.575 0.707733C146.033 0.235911 146.6 0 147.276 0C147.94 0 148.501 0.235911 148.96 0.707733C149.418 1.17955 149.647 1.76343 149.647 2.45937C149.647 3.15531 149.424 3.73919 148.977 4.21101C148.53 4.68283 147.963 4.91874 147.276 4.91874ZM145.351 26.5223V8.43971H149.286V26.5223H145.351Z" fill="#192929"/>
<path d="M136.366 26.5223H128.17L122.224 8.40432H126.383L132.293 26.4869H132.328L138.307 8.40432H142.431L136.366 26.5223Z" fill="#192929"/>
<path d="M107.981 27C107.099 27 106.246 26.8761 105.421 26.6284C104.596 26.3925 103.846 26.0446 103.17 25.5845C102.494 25.1245 101.95 24.5288 101.538 23.7975C101.137 23.0544 100.936 22.2228 100.936 21.3028C100.936 20.4063 101.154 19.616 101.589 18.9318C102.036 18.2477 102.62 17.711 103.342 17.3218C104.075 16.9325 104.842 16.6376 105.644 16.4371C106.446 16.2366 107.282 16.1186 108.153 16.0832L116.847 15.694V15.0747C116.847 12.7274 114.854 11.5537 110.868 11.5537C106.95 11.5537 104.991 12.6802 104.991 14.9332H101.366C101.366 13.9541 101.532 13.0813 101.864 12.3145C102.208 11.5478 102.66 10.9227 103.222 10.4391C103.794 9.95544 104.487 9.55439 105.301 9.23591C106.114 8.91743 106.962 8.69332 107.844 8.56356C108.726 8.43381 109.688 8.36894 110.73 8.36894C112.322 8.36894 113.714 8.51048 114.906 8.79358C116.097 9.07667 117.128 9.5249 117.998 10.1383C118.869 10.7398 119.528 11.5537 119.974 12.5799C120.421 13.5944 120.644 14.8093 120.644 16.2248V26.4869H116.916V20.0288C116.916 21.1612 116.687 22.1638 116.229 23.0367C115.77 23.9096 115.209 24.5878 114.545 25.0714C113.892 25.555 113.13 25.9502 112.259 26.2569C111.4 26.5636 110.627 26.7641 109.94 26.8585C109.264 26.9528 108.611 27 107.981 27ZM109.167 23.9921C109.762 23.9803 110.381 23.9391 111.022 23.8683C111.664 23.7857 112.345 23.6442 113.067 23.4436C113.789 23.2431 114.424 22.9954 114.974 22.7005C115.536 22.4056 115.999 22.0164 116.366 21.5328C116.733 21.0374 116.916 20.4889 116.916 19.8873V18.5072L109.665 18.8434C108.909 18.867 108.193 18.9495 107.517 19.0911C106.841 19.2208 106.228 19.4685 105.679 19.8342C105.129 20.1881 104.854 20.6304 104.854 21.1612C104.854 21.8218 105.083 22.3761 105.541 22.8244C105.999 23.2608 106.538 23.5675 107.156 23.7444C107.775 23.9096 108.445 23.9921 109.167 23.9921Z" fill="#192929"/>
<path d="M99.7342 8.40432V12.2438H96.0056C95.4329 12.2438 94.9231 12.3028 94.4764 12.4207C94.0296 12.5269 93.6516 12.6684 93.3423 12.8453C93.033 13.0223 92.7639 13.2582 92.5348 13.5531C92.3171 13.848 92.1453 14.1488 92.0193 14.4554C91.9047 14.7503 91.8074 15.1101 91.7272 15.5347C91.6585 15.9594 91.6126 16.3545 91.5897 16.7202C91.5783 17.074 91.5725 17.4928 91.5725 17.9764V26.5223H87.6206V8.43971H91.5382V15.4993C91.5382 13.4233 92.0823 11.7248 93.1705 10.4037C94.2702 9.07077 95.5989 8.40432 97.1568 8.40432H99.7342Z" fill="#192929"/>
<path d="M78.5834 5.53801C78.5834 6.72936 78.9671 7.56094 79.7346 8.03277C80.5021 8.49279 81.7564 8.72281 83.4975 8.72281H85.147V12.173H78.6177V19.8165C78.6177 21.7746 79.3795 22.7536 80.903 22.7536H85.147V26.5223H79.7346C78.1309 26.5223 76.8938 25.9974 76.0232 24.9476C75.1641 23.8978 74.7345 22.4528 74.7345 20.6127V12.173H71.006V8.72281H82.0198C81.1378 8.72281 80.4734 8.71691 80.0267 8.70511C79.5799 8.69332 79.0416 8.65793 78.4115 8.59895C77.7815 8.52818 77.3176 8.42792 77.0198 8.29817C76.7334 8.16842 76.4069 7.98558 76.0404 7.74967C75.6738 7.50197 75.4104 7.19528 75.25 6.82962C75.1011 6.45216 74.9693 5.99803 74.8548 5.46724C74.7517 4.92464 74.7002 4.28768 74.7002 3.55636V1.15007H78.5834V5.53801Z" fill="#192929"/>
<path d="M47.0888 8.65203C47.0888 7.44889 47.3064 6.39319 47.7417 5.48493C48.1885 4.56488 48.7555 3.83945 49.4428 3.30865C50.1415 2.76606 50.9835 2.32962 51.9686 1.99935C52.9652 1.65727 53.9388 1.43316 54.8896 1.327C55.8403 1.20904 56.8656 1.15007 57.9652 1.15007C58.8014 1.15007 59.5632 1.17366 60.2505 1.22084C60.9378 1.25623 61.6652 1.34469 62.4326 1.48624C63.2116 1.61599 63.8989 1.79292 64.4945 2.01704C65.0902 2.24115 65.6687 2.54784 66.2299 2.93709C66.8027 3.31455 67.2723 3.76278 67.6389 4.28178C68.0055 4.78899 68.2976 5.42005 68.5152 6.17497C68.7443 6.91809 68.8588 7.75557 68.8588 8.68742H65.0959C65.0959 8.15662 65.0157 7.6848 64.8554 7.27195C64.7064 6.85911 64.5117 6.51704 64.2712 6.24574C64.0306 5.96265 63.7099 5.72674 63.3089 5.53801C62.908 5.33748 62.5243 5.18414 62.1577 5.07798C61.7912 4.97182 61.333 4.88925 60.7831 4.83028C60.2448 4.7713 59.7751 4.73591 59.3742 4.72412C58.9733 4.71232 58.4864 4.70642 57.9137 4.70642C57.3753 4.70642 56.9171 4.71232 56.5391 4.72412C56.1725 4.73591 55.7201 4.7713 55.1817 4.83028C54.6548 4.87746 54.208 4.95413 53.8415 5.06029C53.4864 5.15465 53.1026 5.2962 52.6902 5.48493C52.2893 5.67366 51.9686 5.89777 51.728 6.15727C51.4875 6.41678 51.287 6.74705 51.1267 7.1481C50.9663 7.54915 50.8861 8.00328 50.8861 8.51049C50.8861 9.46593 51.1897 10.2326 51.7968 10.8106C52.4153 11.3768 53.3317 11.713 54.5459 11.8191L62.845 12.5799C64.8725 12.7569 66.4476 13.382 67.5702 14.4554C68.6928 15.5288 69.254 17.0151 69.254 18.9142C69.254 19.8696 69.128 20.7307 68.876 21.4974C68.624 22.2523 68.2918 22.8952 67.8795 23.426C67.4785 23.945 66.9688 24.3991 66.3502 24.7883C65.7317 25.1658 65.1016 25.4666 64.4602 25.6907C63.8187 25.903 63.0798 26.0741 62.2436 26.2038C61.4189 26.3336 60.6514 26.422 59.9412 26.4692C59.2425 26.5046 58.4635 26.5223 57.6044 26.5223C56.8026 26.5223 56.0523 26.4987 55.3535 26.4515C54.6662 26.3925 53.9446 26.2923 53.1885 26.1507C52.4325 26.0092 51.7509 25.8263 51.1438 25.6022C50.5367 25.3663 49.9525 25.0537 49.3912 24.6645C48.8299 24.2752 48.3546 23.827 47.9651 23.3198C47.5871 22.8008 47.2835 22.1756 47.0544 21.4443C46.8368 20.7012 46.728 19.8814 46.728 18.9849H50.4909C50.4909 19.4921 50.5654 19.9463 50.7143 20.3473C50.8746 20.7484 51.0808 21.0904 51.3328 21.3735C51.5848 21.6448 51.8999 21.8807 52.2779 22.0813C52.6673 22.2818 53.0568 22.441 53.4463 22.559C53.8357 22.6651 54.2882 22.7536 54.8037 22.8244C55.3191 22.8834 55.7888 22.9246 56.2126 22.9482C56.6365 22.96 57.1118 22.9659 57.6388 22.9659C58.2459 22.9659 58.7499 22.96 59.1508 22.9482C59.5632 22.9364 60.0672 22.9069 60.6629 22.8598C61.27 22.8126 61.774 22.7418 62.1749 22.6474C62.5758 22.5531 63.0054 22.4115 63.4636 22.2228C63.9332 22.0341 64.2998 21.8159 64.5633 21.5682C64.8382 21.3087 65.0673 20.9843 65.2506 20.595C65.4338 20.194 65.5255 19.7398 65.5255 19.2326C65.5255 18.23 65.2334 17.5223 64.6492 17.1094C64.065 16.6848 63.1715 16.4017 61.9687 16.2602L53.6353 15.464C51.5734 15.2398 49.964 14.5439 48.807 13.3761C47.6615 12.1966 47.0888 10.6219 47.0888 8.65203Z" fill="#192929"/>
<path d="M9.41068 1.56138H18.6888L9.27814 18.4399H0L9.41068 1.56138Z" fill="#192929"/>
<path d="M27.3042 10.0693H36.5824L27.1717 26.9479H17.8935L27.3042 10.0693Z" fill="#192929"/>
<path d="M9.41068 18.44H18.6888L14.1823 26.9479H4.90416L9.41068 18.44Z" fill="#192929"/>
<path d="M22.4001 1.56138H31.6782L27.1717 10.0693H17.8935L22.4001 1.56138Z" fill="#192929"/>
</svg>
