<svg width="1700" height="496" viewBox="0 0 1700 496" fill="none" xmlns="http://www.w3.org/2000/svg">
<path d="M325.5 250.5C330.5 301 288.327 393.113 255.5 427.583C210.029 379.839 184.667 316.433 184.667 250.5C184.667 184.567 219.5 81 356 86.9999C248 51.5002 194 83 162.807 99.6424C134.927 116.782 112.342 141.312 97.5584 170.51C82.7753 199.709 76.3728 232.432 79.0617 265.049C81.7505 297.666 93.4256 328.899 112.791 355.283C132.156 381.666 158.454 402.166 188.765 414.508C219.075 426.85 252.214 430.551 284.501 425.2C316.788 419.849 346.96 405.655 371.668 384.194C396.377 362.733 425.5 313.5 427 234.5" stroke="white" stroke-opacity="0.6" stroke-width="2" stroke-linecap="round" stroke-linejoin="round"/>
<path d="M78.417 250.5L308 247.978" stroke="white" stroke-opacity="0.6" stroke-width="2" stroke-linecap="round" stroke-linejoin="round"/>
<path d="M392.251 158.833V123.417C392.251 114.024 388.52 105.015 381.878 98.3733C375.236 91.7314 366.228 88 356.835 88C347.442 88 338.433 91.7314 331.791 98.3733C325.149 105.015 321.418 114.024 321.418 123.417V158.833" stroke="white" stroke-opacity="0.6" stroke-width="2" stroke-linecap="round" stroke-linejoin="round"/>
<path d="M409.958 158.833H303.708C293.928 158.833 286 166.762 286 176.542V229.667C286 239.447 293.928 247.375 303.708 247.375H409.958C419.738 247.375 427.667 239.447 427.667 229.667V176.542C427.667 166.762 419.738 158.833 409.958 158.833Z" stroke="white" stroke-opacity="0.6" stroke-width="2" stroke-linecap="round" stroke-linejoin="round"/>
<path d="M248.221 218.132C248.221 225.981 246.42 233.186 242.817 239.748C239.214 246.181 233.682 251.392 226.219 255.381C218.756 259.37 209.492 261.364 198.427 261.364H177.969V310H144.966V174.514H198.427C209.235 174.514 218.37 176.38 225.833 180.111C233.296 183.842 238.893 188.989 242.624 195.551C246.355 202.113 248.221 209.64 248.221 218.132ZM195.918 235.116C202.223 235.116 206.919 233.636 210.007 230.677C213.095 227.718 214.639 223.536 214.639 218.132C214.639 212.728 213.095 208.546 210.007 205.587C206.919 202.628 202.223 201.148 195.918 201.148H177.969V235.116H195.918ZM314.425 311.351C304.517 311.351 295.639 309.743 287.791 306.526C279.942 303.309 273.637 298.549 268.877 292.244C264.245 285.939 261.8 278.348 261.543 269.47H296.669C297.183 274.488 298.92 278.348 301.88 281.05C304.839 283.623 308.699 284.91 313.46 284.91C318.349 284.91 322.209 283.816 325.04 281.629C327.87 279.313 329.286 276.161 329.286 272.172C329.286 268.827 328.128 266.06 325.812 263.873C323.624 261.686 320.858 259.884 317.513 258.469C314.296 257.054 309.664 255.445 303.617 253.644C294.867 250.942 287.726 248.24 282.194 245.538C276.661 242.836 271.9 238.847 267.912 233.572C263.923 228.297 261.929 221.413 261.929 212.921C261.929 200.312 266.496 190.469 275.632 183.392C284.767 176.187 296.669 172.584 311.337 172.584C326.262 172.584 338.292 176.187 347.428 183.392C356.563 190.469 361.452 200.376 362.096 213.114H326.391C326.133 208.739 324.525 205.33 321.566 202.885C318.606 200.312 314.811 199.025 310.179 199.025C306.19 199.025 302.973 200.119 300.529 202.306C298.084 204.365 296.862 207.388 296.862 211.377C296.862 215.752 298.92 219.161 303.038 221.606C307.155 224.051 313.588 226.688 322.338 229.519C331.087 232.478 338.164 235.309 343.568 238.011C349.1 240.713 353.861 244.637 357.85 249.784C361.838 254.931 363.833 261.557 363.833 269.663C363.833 277.383 361.838 284.395 357.85 290.7C353.99 297.005 348.328 302.023 340.866 305.754C333.403 309.485 324.589 311.351 314.425 311.351Z" fill="white"/>
<path d="M485 251C485 377.473 382.473 480 256 480C129.527 480 27 377.473 27 251C27 124.527 129.527 22 256 22C382.473 22 485 124.527 485 251ZM41.5115 251C41.5115 369.459 137.541 465.489 256 465.489C374.459 465.489 470.489 369.459 470.489 251C470.489 132.541 374.459 36.5115 256 36.5115C137.541 36.5115 41.5115 132.541 41.5115 251Z" fill="white"/>
<path d="M32.9094 132.723C14.3181 163.545 3.2544 198.316 0.616 234.215C-2.0224 270.113 3.83878 306.128 17.724 339.337L31.1123 333.739C18.107 302.634 12.6172 268.902 15.0884 235.278C17.5596 201.655 27.9222 169.087 45.3354 140.218L32.9094 132.723Z" fill="white"/>
<path d="M332.35 489.21C367.278 480.51 399.663 463.699 426.878 440.14C454.093 416.582 475.371 386.94 488.986 353.619L475.553 348.13C462.801 379.339 442.871 407.103 417.38 429.169C391.89 451.234 361.557 466.98 328.842 475.129L332.35 489.21Z" fill="white"/>
<path d="M502.082 186.82C493.123 139.015 469.177 95.3036 433.712 62.0194C398.246 28.7353 353.105 7.60747 304.828 1.69709L303.064 16.101C348.282 21.6369 390.563 41.4259 423.781 72.6008C456.999 103.776 479.428 144.717 487.819 189.493L502.082 186.82Z" fill="white"/>
<path d="M666.221 159.132C666.221 166.981 664.42 174.186 660.817 180.748C657.214 187.181 651.682 192.392 644.219 196.381C636.756 200.37 627.492 202.364 616.427 202.364H595.969V251H562.966V115.514H616.427C627.235 115.514 636.37 117.38 643.833 121.111C651.296 124.842 656.893 129.989 660.624 136.551C664.355 143.113 666.221 150.64 666.221 159.132ZM613.918 176.116C620.223 176.116 624.919 174.636 628.007 171.677C631.095 168.718 632.639 164.536 632.639 159.132C632.639 153.728 631.095 149.546 628.007 146.587C624.919 143.628 620.223 142.148 613.918 142.148H595.969V176.116H613.918ZM732.425 252.544C721.874 252.544 712.353 250.292 703.861 245.789C695.497 241.286 688.871 234.852 683.982 226.489C679.221 218.126 676.841 208.347 676.841 197.153C676.841 186.088 679.285 176.373 684.175 168.01C689.064 159.518 695.755 153.02 704.247 148.517C712.739 144.014 722.26 141.762 732.811 141.762C743.361 141.762 752.883 144.014 761.375 148.517C769.867 153.02 776.557 159.518 781.447 168.01C786.336 176.373 788.781 186.088 788.781 197.153C788.781 208.218 786.272 217.997 781.254 226.489C776.364 234.852 769.609 241.286 760.989 245.789C752.497 250.292 742.975 252.544 732.425 252.544ZM732.425 223.98C738.729 223.98 744.069 221.664 748.444 217.032C752.947 212.4 755.199 205.774 755.199 197.153C755.199 188.532 753.011 181.906 748.637 177.274C744.391 172.642 739.115 170.326 732.811 170.326C726.377 170.326 721.038 172.642 716.792 177.274C712.546 181.777 710.423 188.404 710.423 197.153C710.423 205.774 712.481 212.4 716.599 217.032C720.845 221.664 726.12 223.98 732.425 223.98ZM960.882 143.306L931.739 251H895.262L878.278 181.134L860.715 251H824.431L795.095 143.306H828.098L843.345 220.313L861.487 143.306H896.42L914.755 219.927L929.809 143.306H960.882ZM1074.99 195.416C1074.99 198.504 1074.79 201.721 1074.41 205.066H999.716C1000.23 211.757 1002.35 216.903 1006.08 220.506C1009.94 223.98 1014.64 225.717 1020.17 225.717C1028.41 225.717 1034.13 222.243 1037.35 215.295H1072.48C1070.68 222.372 1067.39 228.741 1062.63 234.402C1058 240.063 1052.15 244.502 1045.07 247.719C1037.99 250.936 1030.08 252.544 1021.33 252.544C1010.78 252.544 1001.39 250.292 993.154 245.789C984.919 241.286 978.486 234.852 973.854 226.489C969.222 218.126 966.906 208.347 966.906 197.153C966.906 185.959 969.158 176.18 973.661 167.817C978.293 159.454 984.726 153.02 992.961 148.517C1001.2 144.014 1010.65 141.762 1021.33 141.762C1031.75 141.762 1041.02 143.949 1049.12 148.324C1057.23 152.699 1063.53 158.939 1068.04 167.045C1072.67 175.151 1074.99 184.608 1074.99 195.416ZM1041.21 186.731C1041.21 181.07 1039.28 176.566 1035.42 173.221C1031.56 169.876 1026.74 168.203 1020.95 168.203C1015.41 168.203 1010.72 169.811 1006.86 173.028C1003.13 176.245 1000.81 180.812 999.909 186.731H1041.21ZM1125.4 161.255C1129.26 155.336 1134.08 150.704 1139.87 147.359C1145.66 143.885 1152.1 142.148 1159.17 142.148V177.081H1150.1C1141.87 177.081 1135.69 178.882 1131.58 182.485C1127.46 185.959 1125.4 192.135 1125.4 201.013V251H1092.4V143.306H1125.4V161.255ZM1264.87 252.351C1254.96 252.351 1246.09 250.743 1238.24 247.526C1230.39 244.309 1224.08 239.549 1219.32 233.244C1214.69 226.939 1212.25 219.348 1211.99 210.47H1247.11C1247.63 215.488 1249.37 219.348 1252.33 222.05C1255.29 224.623 1259.15 225.91 1263.91 225.91C1268.8 225.91 1272.66 224.816 1275.49 222.629C1278.32 220.313 1279.73 217.161 1279.73 213.172C1279.73 209.827 1278.57 207.06 1276.26 204.873C1274.07 202.686 1271.3 200.884 1267.96 199.469C1264.74 198.054 1260.11 196.445 1254.06 194.644C1245.31 191.942 1238.17 189.24 1232.64 186.538C1227.11 183.836 1222.35 179.847 1218.36 174.572C1214.37 169.297 1212.37 162.413 1212.37 153.921C1212.37 141.312 1216.94 131.469 1226.08 124.392C1235.21 117.187 1247.11 113.584 1261.78 113.584C1276.71 113.584 1288.74 117.187 1297.87 124.392C1307.01 131.469 1311.9 141.376 1312.54 154.114H1276.84C1276.58 149.739 1274.97 146.33 1272.01 143.885C1269.05 141.312 1265.26 140.025 1260.62 140.025C1256.64 140.025 1253.42 141.119 1250.97 143.306C1248.53 145.365 1247.31 148.388 1247.31 152.377C1247.31 156.752 1249.37 160.161 1253.48 162.606C1257.6 165.051 1264.03 167.688 1272.78 170.519C1281.53 173.478 1288.61 176.309 1294.01 179.011C1299.55 181.713 1304.31 185.637 1308.3 190.784C1312.28 195.931 1314.28 202.557 1314.28 210.663C1314.28 218.383 1312.28 225.395 1308.3 231.7C1304.44 238.005 1298.77 243.023 1291.31 246.754C1283.85 250.485 1275.04 252.351 1264.87 252.351ZM1444.6 143.306L1377.05 302.145H1341.54L1366.24 247.333L1322.43 143.306H1359.29L1384.19 210.663L1408.89 143.306H1444.6ZM1522.15 142.148C1534.76 142.148 1544.8 146.265 1552.26 154.5C1559.85 162.606 1563.65 173.8 1563.65 188.082V251H1530.84V192.521C1530.84 185.316 1528.97 179.719 1525.24 175.73C1521.51 171.741 1516.49 169.747 1510.19 169.747C1503.88 169.747 1498.86 171.741 1495.13 175.73C1491.4 179.719 1489.54 185.316 1489.54 192.521V251H1456.53V143.306H1489.54V157.588C1492.88 152.827 1497.39 149.096 1503.05 146.394C1508.71 143.563 1515.08 142.148 1522.15 142.148ZM1580.02 197.153C1580.02 185.959 1582.27 176.18 1586.78 167.817C1591.41 159.454 1597.78 153.02 1605.88 148.517C1614.12 144.014 1623.51 141.762 1634.06 141.762C1647.57 141.762 1658.83 145.3 1667.84 152.377C1676.97 159.454 1682.95 169.425 1685.78 182.292H1650.66C1647.7 174.057 1641.97 169.94 1633.48 169.94C1627.43 169.94 1622.61 172.32 1619.01 177.081C1615.4 181.713 1613.6 188.404 1613.6 197.153C1613.6 205.902 1615.4 212.657 1619.01 217.418C1622.61 222.05 1627.43 224.366 1633.48 224.366C1641.97 224.366 1647.7 220.249 1650.66 212.014H1685.78C1682.95 224.623 1676.97 234.531 1667.84 241.736C1658.7 248.941 1647.44 252.544 1634.06 252.544C1623.51 252.544 1614.12 250.292 1605.88 245.789C1597.78 241.286 1591.41 234.852 1586.78 226.489C1582.27 218.126 1580.02 208.347 1580.02 197.153Z" fill="white"/>
<path d="M579.032 373.672C574.616 373.672 570.712 372.904 567.32 371.368C563.992 369.832 561.368 367.688 559.448 364.936C557.528 362.184 556.504 359.112 556.376 355.72H563.48C563.8 358.984 565.24 361.864 567.8 364.36C570.36 366.792 574.104 368.008 579.032 368.008C583.576 368.008 587.16 366.856 589.784 364.552C592.472 362.184 593.816 359.208 593.816 355.624C593.816 352.744 593.08 350.44 591.608 348.712C590.136 346.92 588.312 345.608 586.136 344.776C583.96 343.88 580.952 342.92 577.112 341.896C572.632 340.68 569.08 339.496 566.456 338.344C563.832 337.192 561.592 335.4 559.736 332.968C557.88 330.536 556.952 327.24 556.952 323.08C556.952 319.624 557.848 316.552 559.64 313.864C561.432 311.112 563.96 308.968 567.224 307.432C570.488 305.896 574.232 305.128 578.456 305.128C584.664 305.128 589.656 306.664 593.432 309.736C597.272 312.744 599.48 316.648 600.056 321.448H592.76C592.312 318.696 590.808 316.264 588.248 314.152C585.688 311.976 582.232 310.888 577.88 310.888C573.848 310.888 570.488 311.976 567.8 314.152C565.112 316.264 563.768 319.176 563.768 322.888C563.768 325.704 564.504 327.976 565.976 329.704C567.448 331.432 569.272 332.744 571.448 333.64C573.688 334.536 576.696 335.496 580.472 336.52C584.824 337.736 588.344 338.952 591.032 340.168C593.72 341.32 595.992 343.112 597.848 345.544C599.704 347.976 600.632 351.24 600.632 355.336C600.632 358.472 599.8 361.448 598.136 364.264C596.472 367.08 594.008 369.352 590.744 371.08C587.48 372.808 583.576 373.672 579.032 373.672ZM726.801 373.768C721.873 373.768 717.425 372.68 713.457 370.504C709.553 368.264 706.449 365.128 704.145 361.096C701.905 357 700.785 352.232 700.785 346.792C700.785 341.352 701.937 336.616 704.241 332.584C706.545 328.488 709.681 325.352 713.649 323.176C717.617 320.936 722.065 319.816 726.993 319.816C731.921 319.816 736.369 320.936 740.337 323.176C744.369 325.352 747.505 328.488 749.745 332.584C752.049 336.616 753.201 341.352 753.201 346.792C753.201 352.168 752.049 356.904 749.745 361C747.441 365.096 744.273 368.264 740.241 370.504C736.209 372.68 731.729 373.768 726.801 373.768ZM726.801 367.912C730.257 367.912 733.457 367.144 736.401 365.608C739.345 364.008 741.713 361.64 743.505 358.504C745.361 355.304 746.289 351.4 746.289 346.792C746.289 342.184 745.393 338.312 743.601 335.176C741.809 331.976 739.441 329.608 736.497 328.072C733.553 326.472 730.353 325.672 726.897 325.672C723.441 325.672 720.241 326.472 717.297 328.072C714.353 329.608 711.985 331.976 710.193 335.176C708.465 338.312 707.601 342.184 707.601 346.792C707.601 351.4 708.465 355.304 710.193 358.504C711.985 361.64 714.321 364.008 717.201 365.608C720.145 367.144 723.345 367.912 726.801 367.912ZM862.411 301.96V373H855.691V301.96H862.411ZM1013.28 320.584V373H1006.56V363.784C1005.02 367.048 1002.65 369.544 999.453 371.272C996.253 373 992.669 373.864 988.701 373.864C982.429 373.864 977.309 371.944 973.341 368.104C969.373 364.2 967.389 358.568 967.389 351.208V320.584H974.013V350.44C974.013 356.136 975.421 360.488 978.237 363.496C981.117 366.504 985.021 368.008 989.949 368.008C995.005 368.008 999.037 366.408 1002.04 363.208C1005.05 360.008 1006.56 355.304 1006.56 349.096V320.584H1013.28ZM1127.59 326.248V358.792C1127.59 361.992 1128.2 364.2 1129.42 365.416C1130.63 366.632 1132.78 367.24 1135.85 367.24H1141.99V373H1134.79C1130.06 373 1126.54 371.912 1124.23 369.736C1121.93 367.496 1120.78 363.848 1120.78 358.792V326.248H1113.48V320.584H1120.78V307.432H1127.59V320.584H1141.99V326.248H1127.59ZM1246.68 310.696C1245.33 310.696 1244.18 310.216 1243.22 309.256C1242.26 308.296 1241.78 307.112 1241.78 305.704C1241.78 304.296 1242.26 303.144 1243.22 302.248C1244.18 301.288 1245.33 300.808 1246.68 300.808C1248.02 300.808 1249.17 301.288 1250.13 302.248C1251.09 303.144 1251.57 304.296 1251.57 305.704C1251.57 307.112 1251.09 308.296 1250.13 309.256C1249.17 310.216 1248.02 310.696 1246.68 310.696ZM1250.04 320.584V373H1243.32V320.584H1250.04ZM1378.44 373.768C1373.51 373.768 1369.06 372.68 1365.1 370.504C1361.19 368.264 1358.09 365.128 1355.78 361.096C1353.54 357 1352.42 352.232 1352.42 346.792C1352.42 341.352 1353.58 336.616 1355.88 332.584C1358.18 328.488 1361.32 325.352 1365.29 323.176C1369.26 320.936 1373.7 319.816 1378.63 319.816C1383.56 319.816 1388.01 320.936 1391.98 323.176C1396.01 325.352 1399.14 328.488 1401.38 332.584C1403.69 336.616 1404.84 341.352 1404.84 346.792C1404.84 352.168 1403.69 356.904 1401.38 361C1399.08 365.096 1395.91 368.264 1391.88 370.504C1387.85 372.68 1383.37 373.768 1378.44 373.768ZM1378.44 367.912C1381.9 367.912 1385.1 367.144 1388.04 365.608C1390.98 364.008 1393.35 361.64 1395.14 358.504C1397 355.304 1397.93 351.4 1397.93 346.792C1397.93 342.184 1397.03 338.312 1395.24 335.176C1393.45 331.976 1391.08 329.608 1388.14 328.072C1385.19 326.472 1381.99 325.672 1378.54 325.672C1375.08 325.672 1371.88 326.472 1368.94 328.072C1365.99 329.608 1363.62 331.976 1361.83 335.176C1360.1 338.312 1359.24 342.184 1359.24 346.792C1359.24 351.4 1360.1 355.304 1361.83 358.504C1363.62 361.64 1365.96 364.008 1368.84 365.608C1371.78 367.144 1374.98 367.912 1378.44 367.912ZM1531.9 319.624C1538.18 319.624 1543.3 321.576 1547.26 325.48C1551.23 329.32 1553.22 334.92 1553.22 342.28V373H1546.59V343.048C1546.59 337.352 1545.15 333 1542.27 329.992C1539.46 326.984 1535.58 325.48 1530.66 325.48C1525.6 325.48 1521.57 327.08 1518.56 330.28C1515.55 333.48 1514.05 338.184 1514.05 344.392V373H1507.33V320.584H1514.05V329.512C1515.71 326.312 1518.11 323.88 1521.25 322.216C1524.38 320.488 1527.94 319.624 1531.9 319.624ZM1676.37 373.768C1670.35 373.768 1665.42 372.392 1661.58 369.64C1657.81 366.824 1655.69 363.016 1655.25 358.216H1662.16C1662.48 361.16 1663.85 363.56 1666.29 365.416C1668.78 367.208 1672.11 368.104 1676.27 368.104C1679.92 368.104 1682.77 367.24 1684.81 365.512C1686.93 363.784 1687.98 361.64 1687.98 359.08C1687.98 357.288 1687.41 355.816 1686.25 354.664C1685.1 353.512 1683.63 352.616 1681.84 351.976C1680.11 351.272 1677.74 350.536 1674.73 349.768C1670.83 348.744 1667.66 347.72 1665.23 346.696C1662.8 345.672 1660.72 344.168 1658.99 342.184C1657.33 340.136 1656.49 337.416 1656.49 334.024C1656.49 331.464 1657.26 329.096 1658.8 326.92C1660.33 324.744 1662.51 323.016 1665.33 321.736C1668.14 320.456 1671.34 319.816 1674.93 319.816C1680.56 319.816 1685.1 321.256 1688.56 324.136C1692.01 326.952 1693.87 330.856 1694.13 335.848H1687.41C1687.21 332.776 1686 330.312 1683.76 328.456C1681.58 326.536 1678.57 325.576 1674.73 325.576C1671.34 325.576 1668.59 326.376 1666.48 327.976C1664.37 329.576 1663.31 331.56 1663.31 333.928C1663.31 335.976 1663.92 337.672 1665.13 339.016C1666.41 340.296 1667.98 341.32 1669.84 342.088C1671.69 342.792 1674.19 343.592 1677.33 344.488C1681.1 345.512 1684.11 346.504 1686.35 347.464C1688.59 348.424 1690.51 349.832 1692.11 351.688C1693.71 353.544 1694.54 356.008 1694.61 359.08C1694.61 361.896 1693.84 364.424 1692.3 366.664C1690.77 368.84 1688.62 370.568 1685.87 371.848C1683.12 373.128 1679.95 373.768 1676.37 373.768Z" fill="white"/>
</svg>
